<svg width="35" height="35" viewBox="0 0 35 35" fill="none" xmlns="http://www.w3.org/2000/svg">
<g clip-path="url(#clip0_77_3058)">
<path d="M17.2485 16.8596C19.5647 16.8596 21.5703 16.0289 23.2091 14.3899C24.8478 12.7511 25.6786 10.746 25.6786 8.42953C25.6786 6.11387 24.8478 4.10849 23.2088 2.46921C21.5698 0.830723 19.5644 0 17.2485 0C14.932 0 12.9269 0.830723 11.2881 2.46947C9.64935 4.10822 8.81836 6.1136 8.81836 8.42953C8.81836 10.746 9.64935 12.7514 11.2884 14.3901C12.9274 16.0286 14.9328 16.8596 17.2485 16.8596Z" fill="white"/>
<path d="M32.001 26.9134C31.9537 26.2314 31.8581 25.4874 31.7174 24.7018C31.5754 23.9104 31.3924 23.1622 31.1735 22.4783C30.9473 21.7715 30.6397 21.0735 30.2594 20.4046C29.8648 19.7103 29.4012 19.1057 28.881 18.6083C28.3371 18.0878 27.6711 17.6694 26.901 17.3642C26.1336 17.0606 25.2831 16.9068 24.3733 16.9068C24.016 16.9068 23.6705 17.0534 23.0032 17.4878C22.5925 17.7556 22.1121 18.0654 21.5759 18.408C21.1174 18.7001 20.4963 18.9738 19.7292 19.2216C18.9807 19.4638 18.2207 19.5867 17.4706 19.5867C16.7205 19.5867 15.9608 19.4638 15.2116 19.2216C14.4452 18.9741 13.8241 18.7004 13.3661 18.4083C12.835 18.0689 12.3544 17.7591 11.9375 17.4875C11.271 17.0531 10.9252 16.9065 10.5679 16.9065C9.6579 16.9065 8.80768 17.0606 8.0405 17.3644C7.27093 17.6691 6.60469 18.0876 6.06022 18.6085C5.54031 19.1063 5.07648 19.7106 4.68235 20.4046C4.30237 21.0735 3.99475 21.7712 3.76831 22.4786C3.54961 23.1624 3.3667 23.9104 3.22464 24.7018C3.08392 25.4864 2.98832 26.2306 2.94106 26.9142C2.89459 27.5839 2.87109 28.2789 2.87109 28.981C2.87109 30.808 3.45188 32.287 4.59717 33.3778C5.7283 34.4542 7.225 35.0003 9.04507 35.0003H25.8978C27.7179 35.0003 29.214 34.4545 30.3454 33.3778C31.491 32.2878 32.0718 30.8085 32.0718 28.9807C32.0715 28.2755 32.0477 27.5799 32.001 26.9134Z" fill="white"/>
</g>
<defs>
<clipPath id="clip0_77_3058">
<rect width="35" height="35" fill="white"/>
</clipPath>
</defs>
</svg>
