<svg width="35" height="35" viewBox="0 0 35 35" fill="none" xmlns="http://www.w3.org/2000/svg">
<path d="M33.9516 21.3354L30.7345 18.8198C30.7753 18.4319 30.8103 17.9784 30.8103 17.4986C30.8103 17.0188 30.7768 16.5653 30.7345 16.1773L33.9545 13.6603C34.5525 13.1878 34.7158 12.3492 34.3351 11.6507L30.9897 5.8625C30.6324 5.20919 29.8493 4.87375 29.0545 5.16687L25.2584 6.69081C24.5308 6.16581 23.768 5.7225 22.9791 5.36812L22.4016 1.34169C22.3068 0.5775 21.6418 0 20.8558 0H14.1475C13.3614 0 12.6979 0.5775 12.6045 1.33L12.0256 5.37106C11.2614 5.71525 10.5104 6.15275 9.75058 6.69375L5.94433 5.16544C5.23113 4.88981 4.37801 5.19894 4.02363 5.84938L0.673888 11.6448C0.278702 12.3128 0.442013 13.1804 1.05308 13.6646L4.27014 16.1803C4.21907 16.6717 4.19433 17.099 4.19433 17.5001C4.19433 17.9011 4.21914 18.3284 4.27014 18.8213L1.05014 21.3384C0.452198 21.8123 0.290323 22.6509 0.670948 23.3479L4.01639 29.1361C4.3737 29.7879 5.14951 30.1262 5.95157 29.8317L9.74764 28.3078C10.4739 28.8313 11.2366 29.2746 12.0256 29.6304L12.6031 33.6554C12.6978 34.4225 13.3614 35 14.1489 35H20.8572C21.6433 35 22.3083 34.4225 22.4016 33.67L22.9805 29.6304C23.7447 29.2848 24.4943 28.8487 25.2555 28.3062L29.0618 29.8346C29.2455 29.906 29.4366 29.9425 29.6334 29.9425C30.1993 29.9425 30.7199 29.6333 30.9824 29.1521L34.3424 23.3333C34.7158 22.6508 34.5524 21.8123 33.9516 21.3354ZM17.5016 23.3333C14.2845 23.3333 11.6683 20.7171 11.6683 17.5C11.6683 14.2829 14.2845 11.6667 17.5016 11.6667C20.7186 11.6667 23.3349 14.2829 23.3349 17.5C23.3349 20.7171 20.7186 23.3333 17.5016 23.3333Z" fill="white"/>
</svg>
